<svg xmlns="http://www.w3.org/2000/svg" viewBox="0 0 64 64" role="img" aria-label="Copy link"><rect width="64" height="64" rx="16" fill="#d64a3a"/><path fill="#fff" d="M26.3 38.4a4 4 0 0 1 0-5.7l5.3-5.3a4 4 0 0 1 5.7 0 3 3 0 0 0 4.2-4.2 10 10 0 0 0-14.2 0L22 28.5a10 10 0 0 0 0 14.2 10 10 0 0 0 14.2 0 3 3 0 0 0-4.2-4.2 4 4 0 0 1-5.7-.1Z"/><path fill="#fff" d="M41.9 21.3a10 10 0 0 0-14.2 0 3 3 0 0 0 4.2 4.2 4 4 0 0 1 5.7 5.7l-5.3 5.3a4 4 0 0 1-5.7 0 3 3 0 1 0-4.2 4.2 10 10 0 0 0 14.2 0l5.3-5.3a10 10 0 0 0 0-14.1Z"/></svg>
