<svg xmlns="http://www.w3.org/2000/svg" viewBox="0 0 64 64" role="img" aria-label="WeChat"><rect width="64" height="64" rx="16" fill="#18a058"/><path fill="#fff" d="M27.2 17.2c-9.1 0-16.4 5.9-16.4 13.2 0 4.2 2.4 7.9 6.1 10.3l-1.5 5.2 5.9-3c1.8.5 3.8.8 5.9.8 9.1 0 16.4-5.9 16.4-13.2S36.3 17.2 27.2 17.2Zm-5.8 9.6a2.1 2.1 0 1 1 0 4.2 2.1 2.1 0 0 1 0-4.2Zm11.6 0a2.1 2.1 0 1 1 0 4.2 2.1 2.1 0 0 1 0-4.2Z"/><path fill="#fff" opacity=".92" d="M53.2 37.6c0-6.1-6.2-11-13.8-11-.3 0-.6 0-.9.1.6 1.2.9 2.5.9 3.9 0 7.8-7.7 14.2-17.3 14.5 2.2 2.2 5.7 3.6 9.5 3.6 1.6 0 3.2-.2 4.6-.7l4.8 2.5-1.2-4.2c3.3-2 5.4-5.1 5.4-8.7Zm-18.5-2.2a1.8 1.8 0 1 1 0 3.6 1.8 1.8 0 0 1 0-3.6Zm9.8 0a1.8 1.8 0 1 1 0 3.6 1.8 1.8 0 0 1 0-3.6Z"/></svg>
