<svg xmlns="http://www.w3.org/2000/svg" viewBox="0 0 64 64" role="img" aria-label="WhatsApp"><rect width="64" height="64" rx="16" fill="#128c7e"/><path fill="#fff" d="M32.1 11.5c-11.1 0-20.1 8.8-20.1 19.7 0 3.5 1 6.9 2.8 9.8L12 52.5l11.9-2.9a20.4 20.4 0 0 0 8.2 1.7c11.1 0 20.1-8.8 20.1-19.7S43.2 11.5 32.1 11.5Zm0 35.9c-2.6 0-5.1-.6-7.4-1.8l-.5-.3-7.1 1.7 1.7-6.8-.4-.6a15.8 15.8 0 0 1-2.5-8.4c0-8.7 7.3-15.8 16.2-15.8s16.2 7.1 16.2 15.8-7.3 16.2-16.2 16.2Z"/><path fill="#fff" d="M40.9 35.4c-.5-.2-2.9-1.4-3.3-1.6-.4-.1-.8-.2-1.1.2-.3.5-1.2 1.5-1.5 1.8-.3.3-.6.3-1 .1-2.8-1.4-4.7-2.5-6.6-5.7-.5-.8.5-.8 1.4-2.5.2-.3.1-.6 0-.9-.1-.2-1.1-2.6-1.5-3.6-.4-1-.8-.8-1.1-.8h-.9c-.3 0-.9.1-1.3.6-.5.5-1.7 1.7-1.7 4.1s1.8 4.7 2 5c.2.3 3.5 5.4 8.5 7.5 3.2 1.4 4.5 1.5 6.1 1.3.9-.1 2.9-1.2 3.3-2.3.4-1.1.4-2.1.3-2.3-.1-.4-.4-.6-.9-.9Z"/></svg>
